<svg id="shapes" xmlns="http://www.w3.org/2000/svg" viewBox="0 0 100 100"><path d="M50.561,84.95109a33.5,33.5,0,1,1,33.50063-33.5A33.537,33.537,0,0,1,50.561,84.95109Zm0-64.34052A30.84052,30.84052,0,1,0,81.40217,51.45112,30.87535,30.87535,0,0,0,50.561,20.61057ZM39.96983,72.82438h2.3569l-5.15926-8.93812a1.32974,1.32974,0,0,1,1.15182-1.99461H64.24147V59.8503H38.31929a1.32974,1.32974,0,0,1-1.15182-1.99461l5.15926-8.93812h-2.3569L33.06921,60.86968ZM58.79657,53.98461h2.3569l6.90063-11.952L61.15347,30.07786h-2.3569l5.1592,8.93806A1.32974,1.32974,0,0,1,62.804,41.01053H36.88178V43.052H62.804a1.32974,1.32974,0,0,1,1.15182,1.99461Z" fill="none" stroke="#000" stroke-linecap="round" stroke-linejoin="round" stroke-width="1.58364"/></svg>