<svg id="shapes" xmlns="http://www.w3.org/2000/svg" viewBox="0 0 100 100"><path d="M30.57479,51.74033c19.446-.59759,19.92974-1.08137,20.52639-20.52734.59662,19.446,1.0804,19.92975,20.52636,20.52734-19.446.59567-19.92974,1.07942-20.52636,20.52542C50.50453,52.81975,50.02075,52.336,30.57479,51.74033Z" fill="none" stroke="#000" stroke-linejoin="round" stroke-width="1.58364"/><path d="M80.68558,22.65832a10.77892,10.77892,0,0,0-5.12811-2.62818,18.39839,18.39839,0,0,0-6.00263-.26086A38.09342,38.09342,0,0,0,57.71274,23.294a72.42989,72.42989,0,0,0-20.324,14.49743A71.13106,71.13106,0,0,0,23.02353,58.17284a39.27861,39.27861,0,0,0-3.4458,11.80188,18.20671,18.20671,0,0,0,.24634,5.93634,9.89705,9.89705,0,0,0,7.54456,7.86566,18.50748,18.50748,0,0,0,6.04382.51941,38.90936,38.90936,0,0,0,12.161-3.05176A61.20506,61.20506,0,0,0,56.76212,75.161a70.311,70.311,0,0,0,9.89435-8.10174A63.41458,63.41458,0,0,0,81.07871,46.07958a38.14112,38.14112,0,0,0,3.01886-12.2475,18.94142,18.94142,0,0,0-.532-6.10827A10.87852,10.87852,0,0,0,80.68558,22.65832Zm1.4975-1.49744a12.863,12.863,0,0,1,3.173,6.11755,20.156,20.156,0,0,1,.29761,6.68128,41.38728,41.38728,0,0,1-3.73511,12.48571A79.01252,79.01252,0,0,1,67.148,67.55083,73.53349,73.53349,0,0,1,46.14573,82.55834a40.56142,40.56142,0,0,1-12.57215,3.70233,20.56886,20.56886,0,0,1-6.74566-.31048,13.05729,13.05729,0,0,1-6.20667-3.22773,13.22083,13.22083,0,0,1-3.48529-6.1427,21.057,21.057,0,0,1-.58331-6.85321,40.46151,40.46151,0,0,1,3.30847-12.93121A63.87428,63.87428,0,0,1,26.26,45.23638a72.11493,72.11493,0,0,1,8.43-10.14374,70.14026,70.14026,0,0,1,10.17321-8.38782,63.76845,63.76845,0,0,1,11.58722-6.30865A41.60664,41.60664,0,0,1,69.3414,17.16662a20.84042,20.84042,0,0,1,6.78687.569A13.02052,13.02052,0,0,1,82.18308,21.16088Z"/></svg>